#!OML:ASF G:\JayActor3\Patient Classification 1\Patient 1\Session 6\male.ASF
:FULLY-SPECIFIED
:DEGREES
1151
root -0.199347 15.6681 -12.7879 11.1295 -25.6539 -358.797
lowerback 1.3414 -1.83433 -0.0323551
upperback 3.28387 -2.44628 -0.459127
thorax 2.59827 -1.22018 -0.476008
lowerneck 4.20802 -2.72398 3.35559
upperneck -10.6161 -3.51073 -0.678277
head -4.3273 -1.8556 -0.641358
rclavicle -1.89342e-014 -2.5842e-015
rhumerus -34.4567 19.2487 -96.225
rradius 77.6961
rwrist 11.5376
rhand -33.5962 -6.02594
rfingers 7.12502
rthumb -6.7898 -35.8971
lclavicle -1.89342e-014 -2.5842e-015
lhumerus -23.8 -12.754 92.711
lradius 61.2492
lwrist 2.79649
lhand -40.876 -16.7113
lfingers 7.12502
lthumb -13.8121 12.8102
rfemur -45.7314 4.15499 22.4384
rtibia 57.5002
rfoot -24.3844 -14.9577
rtoes -0.375495
lfemur 5.69092 5.71142 -21.1652
ltibia 13.0913
lfoot -26.5153 1.14572
ltoes -5.91552
1152
root -0.218712 15.6657 -12.7624 11.102 -25.5109 -358.836
lowerback 1.38675 -1.83546 -0.00757457
upperback 3.29513 -2.44882 -0.414622
thorax 2.58529 -1.2215 -0.442883
lowerneck 4.22532 -2.77247 3.33737
upperneck -10.6281 -3.57932 -0.698449
head -4.3368 -1.88785 -0.640969
rclavicle 1.1281e-014 -2.26615e-014
rhumerus -34.498 19.253 -96.2296
rradius 77.6643
rwrist 11.5336
rhand -33.584 -6.03003
rfingers 7.12502
rthumb -6.77796 -35.9015
lclavicle 1.1281e-014 -2.26615e-014
lhumerus -23.9242 -12.7977 92.8225
lradius 61.1298
lwrist 2.77327
lhand -40.8409 -16.7537
lfingers 7.12502
lthumb -13.7783 12.7701
rfemur -45.5379 4.155 22.5118
rtibia 57.5264
rfoot -24.5878 -15.002
rtoes -0.367075
lfemur 5.86616 5.67467 -21.0439
ltibia 13.0741
lfoot -26.443 1.02439
ltoes -6.12437
1153
root -0.238917 15.6634 -12.7364 11.0721 -25.3758 -358.88
lowerback 1.43584 -1.83183 0.0157516
upperback 3.30717 -2.44503 -0.369216
thorax 2.57116 -1.21972 -0.407857
lowerneck 4.24235 -2.82059 3.32145
upperneck -10.6371 -3.64731 -0.719495
head -4.34526 -1.91981 -0.641316
rclavicle -4.3832e-014 2.0276e-014
rhumerus -34.5414 19.2529 -96.2328
rradius 77.6335
rwrist 11.5292
rhand -33.568 -6.02791
rfingers 7.12502
rthumb -6.76257 -35.8999
lclavicle -4.3832e-014 2.0276e-014
lhumerus -24.0678 -12.8856 92.9407
lradius 61.0295
lwrist 2.81178
lhand -40.903 -16.7683
lfingers 7.12502
lthumb -13.8381 12.7514
rfemur -45.3357 4.16241 22.5921
rtibia 57.549
rfoot -24.7933 -15.0513
rtoes -0.35334
lfemur 6.05065 5.63039 -20.922
ltibia 13.055
lfoot -26.3718 0.939812
ltoes -6.34911
1154
root -0.259594 15.6615 -12.7099 11.0453 -25.2373 -358.928
lowerback 1.48514 -1.82745 0.0436777
upperback 3.31796 -2.44021 -0.322567
thorax 2.55549 -1.21734 -0.374085
lowerneck 4.26015 -2.86883 3.30788
upperneck -10.6445 -3.71533 -0.741552
head -4.35341 -1.9518 -0.6424
rclavicle -2.42517e-014 -2.98177e-015
rhumerus -34.5848 19.2472 -96.2358
rradius 77.6016
rwrist 11.5256
rhand -33.5558 -6.02138
rfingers 7.12502
rthumb -6.7508 -35.8938
lclavicle -2.42517e-014 -2.98177e-015
lhumerus -24.223 -12.9865 93.0612
lradius 60.933
lwrist 2.85976
lhand -40.9834 -16.7847
lfingers 7.12502
lthumb -13.9156 12.7297
rfemur -45.1297 4.16392 22.6792
rtibia 57.5668
rfoot -24.9989 -15.1042
rtoes -0.351422
lfemur 6.23475 5.55405 -20.8029
ltibia 13.0366
lfoot -26.2974 0.893704
ltoes -6.57492
1155
root -0.280588 15.6599 -12.683 11.0137 -25.0901 -358.963
lowerback 1.53542 -1.82556 0.0632382
upperback 3.32834 -2.43862 -0.278233
thorax 2.53908 -1.21674 -0.338007
lowerneck 4.27354 -2.91714 3.293
upperneck -10.6467 -3.7835 -0.761872
head -4.35871 -1.98386 -0.642739
rclavicle 4.99446e-014 -1.39149e-014
rhumerus -34.6288 19.2418 -96.2367
rradius 77.5719
rwrist 11.5198
rhand -33.5476 -6.01587
rfingers 7.12502
rthumb -6.74281 -35.8885
lclavicle 4.99446e-014 -1.39149e-014
lhumerus -24.3844 -13.0916 93.1809
lradius 60.8357
lwrist 2.90743
lhand -41.0487 -16.8157
lfingers 7.12502
lthumb -13.9786 12.6944
rfemur -44.9182 4.15032 22.7569
rtibia 57.5801
rfoot -25.2084 -15.1554
rtoes -0.351912
lfemur 6.41696 5.42967 -20.7042
ltibia 13.0239
lfoot -26.2189 0.886764
ltoes -6.79389
1156
root -0.301707 15.6584 -12.6554 10.969 -24.9362 -358.975
lowerback 1.58943 -1.82543 0.0690885
upperback 3.33952 -2.43922 -0.240218
thorax 2.52169 -1.2175 -0.300654
lowerneck 4.28729 -2.9672 3.284
upperneck -10.6511 -3.8539 -0.785275
head -4.3652 -2.01713 -0.645
rclavicle 3.8763e-015 -1.2424e-014
rhumerus -34.6723 19.231 -96.2371
rradius 77.5433
rwrist 11.5139
rhand -33.5461 -6.0097
rfingers 7.12502
rthumb -6.74138 -35.8824
lclavicle 3.8763e-015 -1.2424e-014
lhumerus -24.5432 -13.172 93.2952
lradius 60.7232
lwrist 2.90488
lhand -41.0372 -16.869
lfingers 7.12502
lthumb -13.9674 12.6418
rfemur -44.6966 4.11739 22.8149
rtibia 57.5889
rfoot -25.4196 -15.1989
rtoes -0.354784
lfemur 6.59565 5.27121 -20.6344
ltibia 13.0283
lfoot -26.1384 0.913223
ltoes -7.03867
1157
root -0.323062 15.6575 -12.6272 10.9227 -24.7686 -358.98
lowerback 1.64409 -1.82979 0.0726309
upperback 3.34967 -2.44576 -0.202149
thorax 2.50295 -1.22127 -0.261947
lowerneck 4.29918 -3.01722 3.27482
upperneck -10.6545 -3.92459 -0.811095
head -4.37103 -2.05041 -0.648048
rclavicle -3.0911e-014 1.35174e-014
rhumerus -34.7158 19.2229 -96.2311
rradius 77.5174
rwrist 11.5075
rhand -33.545 -5.99974
rfingers 7.12502
rthumb -6.7404 -35.8725
lclavicle -3.0911e-014 1.35174e-014
lhumerus -24.6827 -13.2088 93.4147
lradius 60.5777
lwrist 2.88238
lhand -41.0151 -16.9442
lfingers 7.12502
lthumb -13.9462 12.5681
rfemur -44.4682 4.0662 22.8684
rtibia 57.5907
rfoot -25.6322 -15.2385
rtoes -0.352574
lfemur 6.76482 5.05274 -20.5819
ltibia 13.049
lfoot -26.0528 0.987064
ltoes -7.29613
1158
root -0.344888 15.6571 -12.5985 10.8794 -24.5933 -358.997
lowerback 1.70234 -1.83395 0.0914801
upperback 3.36044 -2.45202 -0.162649
thorax 2.48226 -1.22456 -0.230185
lowerneck 4.30854 -3.06924 3.27167
upperneck -10.6579 -3.99788 -0.839655
head -4.37668 -2.08511 -0.652967
rclavicle -6.65929e-015 -1.68967e-015
rhumerus -34.7589 19.2081 -96.2237
rradius 77.4959
rwrist 11.5033
rhand -33.5451 -5.99767
rfingers 7.12502
rthumb -6.74043 -35.8704
lclavicle -6.65929e-015 -1.68967e-015
lhumerus -24.8217 -13.2317 93.5319
lradius 60.4269
lwrist 2.85533
lhand -40.9803 -17.0245
lfingers 7.12502
lthumb -13.9127 12.4901
rfemur -44.2261 4.00948 22.9367
rtibia 57.5812
rfoot -25.8457 -15.2778
rtoes -0.340752
lfemur 6.9247 4.81884 -20.5186
ltibia 13.0945
lfoot -25.9626 1.07668
ltoes -7.58566
1159
root -0.367154 15.6576 -12.569 10.8346 -24.409 -359.022
lowerback 1.76739 -1.8414 0.120802
upperback 3.3717 -2.46269 -0.119505
thorax 2.458 -1.22986 -0.200311
lowerneck 4.31989 -3.11926 3.27445
upperneck -10.6644 -4.069 -0.877954
head -4.38432 -2.11852 -0.662265
rclavicle 5.04665e-014 1.0138e-014
rhumerus -34.803 19.1953 -96.2128
rradius 77.4773
rwrist 11.5075
rhand -33.5389 -5.9979
rfingers 7.12502
rthumb -6.73449 -35.8708
lclavicle 5.04665e-014 1.0138e-014
lhumerus -24.9637 -13.2321 93.6521
lradius 60.272
lwrist 2.8288
lhand -40.9597 -17.0904
lfingers 7.12502
lthumb -13.8928 12.4255
rfemur -43.9678 3.94927 23.0145
rtibia 57.5594
rfoot -26.061 -15.3144
rtoes -0.300287
lfemur 7.07609 4.55345 -20.4508
ltibia 13.1684
lfoot -25.8713 1.19405
ltoes -7.89607
1160
root -0.389963 15.6592 -12.5389 10.8 -24.2135 -359.074
lowerback 1.83556 -1.85067 0.176032
upperback 3.38213 -2.47578 -0.069655
thorax 2.43034 -1.23583 -0.177877
lowerneck 4.33314 -3.16658 3.28686
upperneck -10.673 -4.13698 -0.928914
head -4.39371 -2.15017 -0.677647
rclavicle -2.3233e-014 9.93923e-017
rhumerus -34.8474 19.1826 -96.1979
rradius 77.46
rwrist 11.5163
rhand -33.5284 -6.00128
rfingers 7.12502
rthumb -6.72435 -35.8745
lclavicle -2.3233e-014 9.93923e-017
lhumerus -25.1106 -13.2253 93.7727
lradius 60.1198
lwrist 2.80223
lhand -40.9528 -17.1305
lfingers 7.12502
lthumb -13.8862 12.3859
rfemur -43.6986 3.88699 23.1187
rtibia 57.5228
rfoot -26.2771 -15.3472
rtoes -0.220134
lfemur 7.20992 4.26539 -20.3595
ltibia 13.2765
lfoot -25.7783 1.33035
ltoes -8.24054
1161
root -0.413403 15.6616 -12.508 10.7666 -24.0096 -359.143
lowerback 1.90998 -1.86279 0.249317
upperback 3.39366 -2.49259 -0.0150062
thorax 2.39974 -1.24331 -0.16038
lowerneck 4.34855 -3.20923 3.3085
upperneck -10.6832 -4.19927 -0.993132
head -4.40474 -2.17874 -0.699386
rclavicle -2.42269e-014 1.69961e-014
rhumerus -34.8917 19.1723 -96.182
rradius 77.4434
rwrist 11.529
rhand -33.5126 -5.99953
rfingers 7.12502
rthumb -6.70908 -35.8732
lclavicle -2.42269e-014 1.69961e-014
lhumerus -25.2689 -13.2333 93.8889
lradius 59.9802
lwrist 2.7808
lhand -40.9714 -17.1294
lfingers 7.12502
lthumb -13.9041 12.3858
rfemur -43.4144 3.82717 23.2414
rtibia 57.4746
rfoot -26.4971 -15.3797
rtoes -0.102137
lfemur 7.33555 3.97033 -20.2481
ltibia 13.4122
lfoot -25.6785 1.47236
ltoes -8.62251
1162
root -0.437515 15.6648 -12.4766 10.7382 -23.7993 -359.23
lowerback 1.98722 -1.87631 0.338772
upperback 3.40551 -2.51111 0.0444847
thorax 2.36744 -1.25134 -0.146816
lowerneck 4.36939 -3.24594 3.33789
upperneck -10.6983 -4.25384 -1.06763
head -4.41911 -2.20332 -0.726266
rclavicle -1.57537e-014 -3.72721e-015
rhumerus -34.9316 19.16 -96.1656
rradius 77.4244
rwrist 11.5406
rhand -33.4921 -5.99131
rfingers 7.12502
rthumb -6.68925 -35.8657
lclavicle -1.57537e-014 -3.72721e-015
lhumerus -25.4366 -13.2565 94.0014
lradius 59.8502
lwrist 2.76004
lhand -41.0072 -17.1112
lfingers 7.12502
lthumb -13.9386 12.4016
rfemur -43.1217 3.767 23.385
rtibia 57.4169
rfoot -26.7142 -15.4179
rtoes 0.0285212
lfemur 7.44475 3.67694 -20.1165
ltibia 13.5811
lfoot -25.5732 1.63534
ltoes -9.11377
1163
root -0.462248 15.6681 -12.4444 10.6977 -23.5922 -359.31
lowerback 2.06941 -1.8904 0.420996
upperback 3.42093 -2.53026 0.102692
thorax 2.33629 -1.25986 -0.130395
lowerneck 4.39245 -3.2754 3.37294
upperneck -10.7164 -4.2992 -1.15206
head -4.4353 -2.22309 -0.757965
rclavicle -1.88845e-014 1.28713e-014
rhumerus -34.9652 19.1516 -96.1489
rradius 77.4058
rwrist 11.5415
rhand -33.4599 -5.998
rfingers 7.12502
rthumb -6.65823 -35.8733
lclavicle -1.88845e-014 1.28713e-014
lhumerus -25.6027 -13.2716 94.1068
lradius 59.7169
lwrist 2.72166
lhand -41.0387 -17.1223
lfingers 7.12502
lthumb -13.9689 12.3884
rfemur -42.8145 3.70504 23.5257
rtibia 57.3544
rfoot -26.928 -15.4582
rtoes 0.160305
lfemur 7.55085 3.3728 -19.993
ltibia 13.7783
lfoot -25.4653 1.80626
ltoes -9.61565
1164
root -0.487755 15.6708 -12.4114 10.6413 -23.4007 -359.378
lowerback 2.15389 -1.90027 0.486749
upperback 3.44136 -2.54364 0.156055
thorax 2.30954 -1.26585 -0.109747
lowerneck 4.41903 -3.29889 3.40967
upperneck -10.7383 -4.33649 -1.23832
head -4.45358 -2.23885 -0.790968
rclavicle -4.47266e-016 -5.64051e-015
rhumerus -34.9919 19.1408 -96.1359
rradius 77.3871
rwrist 11.5316
rhand -33.4205 -6.01138
rfingers 7.12502
rthumb -6.62014 -35.8879
lclavicle -4.47266e-016 -5.64051e-015
lhumerus -25.7512 -13.2606 94.204
lradius 59.5557
lwrist 2.64959
lhand -41.0486 -17.2024
lfingers 7.12502
lthumb -13.9785 12.3077
rfemur -42.4911 3.64631 23.6599
rtibia 57.2888
rfoot -27.1322 -15.5101
rtoes 0.245656
lfemur 7.65089 3.10508 -19.8747
ltibia 14.0144
lfoot -25.3608 1.95031
ltoes -10.133
